# xmcd
#
# Track frame offsets: 
#        150
#        24384
#        46671
#        67036
#        87083
#        113257
#        143757
#        187341
#        206160
#        231928
#        276521
#        308372
#
# Disc length: 4555 seconds
#
# Revision: 0
# Processed by: cddbd v1.5.2PL0 Copyright (c) Steve Scherf et al.
# Submitted via: ExactAudioCopy v1.0b6
#
DISCID=a211c90c
DTITLE=Covenant Worship - Kingdom (2014)
DYEAR=2014
DGENRE=Modern Praise and Worship
TTITLE0=New Every Morning (Feat. David Binion And Joshua Dufrene)
TTITLE1=Risen (Feat. Nicole Binion And Israel Houghton)
TTITLE2=Good To Me (Feat. Colin Edge And Joshua Dufrene)
TTITLE3=Can't Stop Singing (Feat. Nicole Binion, Joshua Dufrene And Is
TTITLE3=rael Houghton)
TTITLE4=Let The Name Of Jesus Reign (Feat. Colin Edge)
TTITLE5=Kingdom Come (Feat. David Binion, Nicole Binion And Joshua Duf
TTITLE5=rene)
TTITLE6=More, Holy Spirit (Feat. Joshua Dufrene, David and Nicole Binion
TTITLE6=, Colin Edge)
TTITLE7=Your Kingdom Knows No End (Feat. David Binion And Joshua Dufre
TTITLE7=ne)
TTITLE8=Closer (Feat. Joshua Dufrene And Nicole Binion)
TTITLE9=Here Waiting (Feat. Nicole Binion) 
TTITLE10=Not Ashamed (Feat. Joshua Dufrene)
TTITLE11=First Loved Me (Feat. Nicole Binion)
EXTD=
EXTT0=
EXTT1=
EXTT2=
EXTT3=
EXTT4=
EXTT5=
EXTT6=
EXTT7=
EXTT8=
EXTT9=
EXTT10=
EXTT11=
PLAYORDER=
